<?xml version="1.0" encoding="UTF-8" standalone="no"?>
<svg
   xmlns:dc="http://purl.org/dc/elements/1.1/"
   xmlns:cc="http://creativecommons.org/ns#"
   xmlns:rdf="http://www.w3.org/1999/02/22-rdf-syntax-ns#"
   xmlns:svg="http://www.w3.org/2000/svg"
   xmlns="http://www.w3.org/2000/svg"
   xmlns:sodipodi="http://sodipodi.sourceforge.net/DTD/sodipodi-0.dtd"
   xmlns:inkscape="http://www.inkscape.org/namespaces/inkscape"
   version="1.1"
   x="0px"
   y="0px"
   viewBox="0 0 74.994507 81.235001"
   enable-background="new 0 0 100 100"
   xml:space="preserve"
   id="svg3799"
   sodipodi:docname="brainstorming.svg"
   width="74.994507"
   height="81.235001"
   inkscape:version="0.92.3 (2405546, 2018-03-11)"><metadata
     id="metadata3805"><rdf:RDF><cc:Work
         rdf:about=""><dc:format>image/svg+xml</dc:format><dc:type
           rdf:resource="http://purl.org/dc/dcmitype/StillImage" /><dc:title></dc:title></cc:Work></rdf:RDF></metadata><defs
     id="defs3803" /><sodipodi:namedview
     pagecolor="#ffffff"
     bordercolor="#666666"
     borderopacity="1"
     objecttolerance="10"
     gridtolerance="10"
     guidetolerance="10"
     inkscape:pageopacity="0"
     inkscape:pageshadow="2"
     inkscape:window-width="1920"
     inkscape:window-height="1116"
     id="namedview3801"
     showgrid="false"
     fit-margin-top="0"
     fit-margin-left="0"
     fit-margin-right="0"
     fit-margin-bottom="0"
     inkscape:zoom="7.224"
     inkscape:cx="37.49615"
     inkscape:cy="42.165099"
     inkscape:window-x="0"
     inkscape:window-y="28"
     inkscape:window-maximized="1"
     inkscape:current-layer="svg3799" /><path
     d="m 74.91415,25.574 c -0.636,-5.449 -4.387,-8.063 -6.079,-8.976 -0.872,-2.1 -3.615,-7.795 -8.942,-11.321 -2.138,-1.416 -5.179,-2.133 -9.041,-2.133 -2.548,0 -5.103,0.326 -6.763,0.707 C 42.51515,2.463 39.17515,0 35.29515,0 c -0.62,0 -1.233,0.063 -1.827,0.186 -4.262,0.893 -7.639,3.417 -9.054,4.615 -0.4,-0.028 -0.893,-0.05 -1.461,-0.05 -2.261,0 -5.52,0.368 -8.189,2.122 -3.368,2.204 -4.683,5.305 -5.1830005,7.104 -3.429,0.993 -7.253,3.654 -8.429,8.513 -0.77299996,3.198 -0.19299996,5.977 0.339,7.587 -1.15799996,1.473 -1.95099996,3.785 -1.19299996,6.619 1.06499996,3.969 5.45399996,8.307 6.25099996,9.07 l 0.097,0.108 0.002,-0.002 c 0.962,1.138 4.2140005,4.535 8.6740005,4.535 3.251,0 6.173,-1.145 7.788,-1.924 3.283,2.598 6.897,4.034 10.555,4.228 l 2.663,-3.538 c -0.198,0.005 -0.413,0.017 -0.587,0.017 -0.201,0 -0.386,-0.003 -0.549,-0.01 h -0.075 -0.066 c -0.186,0.009 -0.368,0.012 -0.551,0.012 -4.74,0 -8.308,-2.699 -9.979,-4.162 -0.054,-0.054 -0.111,-0.102 -0.172,-0.149 -0.014,-0.128 -0.026,-0.257 -0.037,-0.382 -0.014,-0.462 -0.042,-0.957 -0.087,-1.471 -0.087,-3.142 0.436,-5.598 0.458,-5.706 0.504,-3.898 5.209,-4.988 5.256,-4.999 0.445,-0.097 0.724,-0.538 0.627,-0.981 -0.083,-0.384 -0.427,-0.646 -0.806,-0.646 -0.057,0 -0.116,0.005 -0.175,0.017 -0.238,0.052 -5.881,1.337 -6.52,6.3 -0.003,0.024 -0.03,0.123 -0.066,0.297 -0.01,-0.023 -0.023,-0.045 -0.035,-0.066 -2.494,-4.542 -8.942,-6.439 -9.214,-6.519 -0.075,-0.021 -0.151,-0.031 -0.228,-0.031 -0.358,0 -0.688,0.236 -0.792,0.596 -0.125,0.438 0.127,0.895 0.565,1.019 0.059,0.019 6.064,1.793 8.224,5.728 0.495,0.9 0.851,2.953 1.028,4.796 0.019,0.568 0.056,1.165 0.118,1.785 0,0.026 0,0.049 0.002,0.075 -0.059,0.028 -0.118,0.059 -0.174,0.094 -0.033,0.021 -3.41,2.063 -7.173,2.063 -3.389,0 -6.0240005,-3.34 -6.0460005,-3.371 l -0.184,-0.203 c -1.245,-1.16 -4.627,-4.775 -5.357,-7.5 -0.681,-2.545 0.801,-3.79 0.95,-3.908 l 1.112,-0.822 -0.604,-1.238 c -0.016,-0.028 -1.43,-2.977 -0.582,-6.48 1.259,-5.206 6.6090005,-6.102 6.8280005,-6.14 l 1.237,-0.191 0.155,-1.242 c 0.019,-0.148 0.492,-3.684 3.889,-5.909 1.958,-1.285 4.521,-1.537 6.236,-1.537 1.101,0 1.85,0.102 1.867,0.104 l 0.808,0.118 0.58,-0.566 c 0.035,-0.035 3.503,-3.357 7.986,-4.295 0.367,-0.076 0.736,-0.111 1.101,-0.111 3.015,0 5.833,2.381 6.751,3.243 -1.449,1.054 -3.373,2.873 -4.962,4.617 -1.365,1.325 -3.396,1.626 -4.959,1.626 -1.285,0 -2.253,-0.203 -2.274,-0.208 -0.059,-0.012 -0.118,-0.019 -0.177,-0.019 -0.379,0 -0.719,0.264 -0.802,0.648 -0.097,0.445 0.182,0.882 0.627,0.981 0.099,0.023 1.176,0.252 2.621,0.252 0.773,0 1.65,-0.066 2.538,-0.266 -0.08,0.127 -0.154,0.248 -0.219,0.363 -1.497,2.617 0.542,9.025 0.778,9.748 0.115,0.347 0.436,0.566 0.785,0.566 0.082,0 0.17,-0.012 0.254,-0.04 0.434,-0.144 0.669,-0.61 0.528,-1.042 -0.808,-2.458 -1.77,-6.918 -0.914,-8.415 0.436,-0.768 1.344,-1.893 2.414,-3.06 0.005,-0.007 0.009,-0.01 0.016,-0.016 0.019,-0.021 0.04,-0.043 0.057,-0.066 2.044,-2.218 4.65,-4.57 5.753,-4.94 0.002,-0.002 0.007,-0.002 0.009,-0.003 0.003,-0.002 0.007,-0.002 0.01,-0.002 0.929,-0.325 3.734,-0.822 6.724,-0.822 2.585,0 5.308,0.37 7.078,1.541 5.468,3.62 7.818,10.223 7.84,10.286 l 0.254,0.712 0.69,0.278 c 0.17,0.07 4.117,1.744 4.667,6.468 0.563,4.818 -3.363,7.792 -3.514,7.906 -3.903,-3.753 -5.685,-7.253 -6.446,-10.029 -0.003,-0.132 -0.036,-0.257 -0.097,-0.37 -0.834,-3.368 -0.169,-5.589 -0.111,-5.766 0.139,-0.431 -0.096,-0.895 -0.526,-1.037 -0.085,-0.028 -0.174,-0.042 -0.259,-0.042 -0.347,0 -0.669,0.221 -0.783,0.566 -0.064,0.198 -0.862,2.772 0.071,6.618 -3.901,8.62 -10.239,10.404 -14.818,10.404 -3.066,0 -5.341,-0.799 -5.567,-0.882 -0.094,-0.035 -0.191,-0.052 -0.285,-0.052 -0.335,0 -0.65,0.208 -0.771,0.542 -0.158,0.427 0.063,0.9 0.488,1.056 0.061,0.023 2.597,0.92 6.064,0.92 4.773,0 11.312,-1.7 15.608,-9.72 1.129,2.897 3.264,6.279 7.172,9.8 1.004,0.882 1.674,2.852 0.537,5.169 -1.579,3.199 -5.496,6.065 -5.534,6.093 l -0.109,0.089 c -0.743,0.401 -2.202,1.416 -4.653,1.416 -2.152,0 -5.068,-0.782 -8.942,-3.446 -5.07,-3.486 -9.584,-4.344 -12.796,-4.344 -2.982,0 -4.844,0.74 -4.99,0.801 -0.417,0.181 -0.61,0.667 -0.429,1.084 0.134,0.313 0.434,0.5 0.754,0.5 0.11,0 0.222,-0.023 0.33,-0.069 0.03,-0.012 1.509,-0.624 4.064,-0.624 1.354,0 3.021,0.185 4.924,0.709 0.002,10e-4 0.004,0.002 0.006,0.002 0.466,0.128 0.946,0.28 1.441,0.452 0.009,0.003 0.017,0.006 0.025,0.009 0.498,0.174 1.008,0.373 1.534,0.599 0.001,0 0.002,10e-4 0.002,10e-4 h 10e-4 c 0.644,0.277 1.301,0.578 1.984,0.94 -0.641,1.106 -1.697,1.888 -2.895,2.467 l -1.12,4.189 c 2.103,-0.581 4.294,-1.561 5.905,-3.279 3.646,2.367 7.074,3.566 10.203,3.566 3.111,0 5.15,-1.162 6.13,-1.721 l 0.21,-0.12 0.292,-0.156 0.259,-0.21 0.045,-0.036 c 0.754,-0.558 4.71,-3.604 6.55,-7.337 1.363,-2.776 1.164,-5.384 0.205,-7.328 1.639,-1.789 3.909,-5.151 3.372,-9.745 z"
     id="path3779"
     inkscape:connector-curvature="0" /><g
     display="none"
     id="g3783"
     style="display:none"
     transform="translate(-12.50385,-17.893)"><path
       display="inline"
       d="M 49.998,5.031 C 25.149,5.031 5,25.182 5,50.03 5,72.465 21.423,91.062 42.9,94.467 l 3.905,-14.263 h -7.864 l 7.227,-9.603 c -3.658,-0.194 -7.272,-1.63 -10.555,-4.228 -1.615,0.78 -4.537,1.925 -7.788,1.925 -4.46,0 -7.712,-3.397 -8.674,-4.535 l -0.002,0.002 -0.097,-0.108 c -0.797,-0.762 -5.186,-5.101 -6.251,-9.07 -0.757,-2.835 0.035,-5.147 1.193,-6.619 -0.531,-1.61 -1.112,-4.389 -0.339,-7.587 1.176,-4.858 5,-7.519 8.429,-8.512 0.5,-1.799 1.815,-4.9 5.183,-7.104 2.67,-1.754 5.928,-2.122 8.189,-2.122 0.568,0 1.061,0.023 1.461,0.05 1.416,-1.199 4.792,-3.722 9.054,-4.615 0.594,-0.123 1.207,-0.186 1.827,-0.186 3.88,0 7.22,2.463 8.794,3.851 1.66,-0.38 4.215,-0.707 6.764,-0.707 3.861,0 6.902,0.717 9.041,2.133 5.327,3.526 8.07,9.221 8.942,11.321 1.692,0.914 5.443,3.528 6.079,8.976 0.537,4.594 -1.733,7.957 -3.377,9.741 0.959,1.944 1.159,4.552 -0.205,7.328 -1.839,3.733 -5.796,6.779 -6.55,7.337 l -0.045,0.036 -0.259,0.21 -0.292,0.156 -0.21,0.12 c -0.98,0.559 -3.019,1.721 -6.13,1.721 -3.128,0 -6.557,-1.199 -10.203,-3.566 -1.611,1.718 -3.801,2.697 -5.905,3.279 l -1.05,3.925 7.864,0.001 -16.078,20.99 c 1.648,0.183 3.321,0.286 5.018,0.286 C 74.85,95.03 95,74.882 95,50.03 95,25.182 74.85,5.031 49.998,5.031 Z"
       id="path3781"
       inkscape:connector-curvature="0"
       style="display:inline" /></g><path
     d="m 48.55415,55.862 -7.864,-0.001 3.081,-11.522 c -1.059,-0.455 -2.063,-0.802 -3.008,-1.063 l -14.326,19.036 h 7.864 l -5.182,18.923 z"
     id="path3785"
     inkscape:connector-curvature="0" /><g
     display="none"
     id="g3789"
     style="display:none"
     transform="translate(-12.50385,-17.893)"><path
       display="inline"
       d="m 55.365,65.639 c 1.198,-0.579 2.254,-1.362 2.895,-2.467 -0.683,-0.361 -1.339,-0.663 -1.984,-0.94 z"
       id="path3787"
       inkscape:connector-curvature="0"
       style="display:inline" /></g><g
     display="none"
     id="g3793"
     style="display:none"
     transform="translate(-12.50385,-17.893)"><path
       display="inline"
       d="m 72.94,43.993 c -4.295,8.019 -10.835,9.72 -15.608,9.72 -3.467,0 -6.003,-0.898 -6.064,-0.92 -0.425,-0.156 -0.646,-0.629 -0.488,-1.056 0.122,-0.333 0.436,-0.542 0.771,-0.542 0.094,0 0.191,0.017 0.285,0.052 0.226,0.083 2.501,0.882 5.567,0.882 4.578,0 10.917,-1.784 14.818,-10.404 -0.933,-3.846 -0.135,-6.42 -0.071,-6.618 0.115,-0.346 0.436,-0.566 0.783,-0.566 0.085,0 0.174,0.014 0.259,0.042 0.431,0.142 0.665,0.606 0.526,1.037 -0.057,0.177 -0.723,2.399 0.111,5.766 0.061,0.113 0.094,0.238 0.097,0.37 0.761,2.776 2.543,6.275 6.446,10.029 0.151,-0.115 4.077,-3.088 3.514,-7.906 -0.551,-4.724 -4.497,-6.399 -4.667,-6.468 l -0.69,-0.278 -0.254,-0.712 c -0.023,-0.062 -2.373,-6.666 -7.84,-10.286 -1.77,-1.171 -4.493,-1.541 -7.078,-1.541 -2.989,0 -5.794,0.497 -6.724,0.822 -0.003,0 -0.007,0 -0.01,0.002 -0.002,0.002 -0.007,0.002 -0.009,0.003 -1.103,0.37 -3.708,2.722 -5.753,4.94 -0.017,0.023 -0.038,0.045 -0.057,0.066 -0.007,0.005 -0.01,0.009 -0.016,0.016 -1.07,1.167 -1.978,2.293 -2.414,3.06 -0.856,1.497 0.106,5.958 0.914,8.415 0.141,0.432 -0.094,0.898 -0.528,1.042 -0.083,0.028 -0.172,0.04 -0.254,0.04 -0.349,0 -0.67,-0.219 -0.785,-0.566 -0.236,-0.723 -2.275,-7.13 -0.778,-9.748 0.064,-0.115 0.139,-0.236 0.219,-0.363 -0.887,0.2 -1.765,0.266 -2.538,0.266 -1.445,0 -2.522,-0.229 -2.621,-0.252 -0.445,-0.099 -0.724,-0.537 -0.627,-0.981 0.083,-0.384 0.424,-0.648 0.802,-0.648 0.059,0 0.118,0.007 0.177,0.019 0.021,0.005 0.988,0.208 2.274,0.208 1.563,0 3.594,-0.3 4.959,-1.626 1.589,-1.744 3.514,-3.562 4.962,-4.617 -0.919,-0.862 -3.736,-3.243 -6.751,-3.243 -0.365,0 -0.735,0.035 -1.101,0.111 -4.483,0.938 -7.951,4.261 -7.986,4.295 l -0.58,0.566 -0.808,-0.118 c -0.017,-0.002 -0.766,-0.104 -1.867,-0.104 -1.714,0 -4.278,0.252 -6.236,1.537 -3.397,2.225 -3.87,5.761 -3.889,5.909 l -0.155,1.242 -1.237,0.191 c -0.219,0.038 -5.568,0.934 -6.828,6.14 -0.848,3.503 0.566,6.453 0.582,6.48 l 0.604,1.238 -1.112,0.822 c -0.149,0.118 -1.631,1.364 -0.95,3.908 0.73,2.725 4.111,6.34 5.357,7.5 l 0.184,0.203 c 0.023,0.031 2.657,3.371 6.046,3.371 3.764,0 7.14,-2.043 7.173,-2.063 0.056,-0.035 0.115,-0.066 0.174,-0.094 -0.002,-0.026 -0.002,-0.049 -0.002,-0.075 -0.063,-0.62 -0.099,-1.217 -0.118,-1.785 -0.177,-1.843 -0.533,-3.896 -1.028,-4.796 -2.161,-3.936 -8.165,-5.709 -8.224,-5.728 -0.438,-0.125 -0.689,-0.582 -0.565,-1.019 0.104,-0.36 0.434,-0.596 0.792,-0.596 0.076,0 0.153,0.01 0.228,0.031 0.273,0.08 6.72,1.977 9.214,6.519 0.012,0.021 0.024,0.043 0.035,0.066 0.036,-0.174 0.063,-0.273 0.066,-0.297 0.639,-4.962 6.282,-6.248 6.52,-6.3 0.059,-0.012 0.118,-0.017 0.175,-0.017 0.379,0 0.723,0.262 0.806,0.646 0.097,0.443 -0.182,0.884 -0.627,0.981 -0.047,0.01 -4.752,1.101 -5.256,4.999 -0.023,0.108 -0.545,2.564 -0.458,5.706 0.045,0.514 0.073,1.009 0.087,1.471 0.01,0.125 0.023,0.254 0.037,0.382 0.061,0.047 0.118,0.096 0.172,0.149 1.671,1.463 5.238,4.162 9.979,4.162 0.182,0 0.365,-0.003 0.551,-0.012 h 0.066 0.075 c 0.163,0.007 0.347,0.01 0.549,0.01 0.174,0 0.389,-0.012 0.587,-0.017 l 4.437,-5.895 c -1.904,-0.524 -3.57,-0.709 -4.924,-0.709 -2.555,0 -4.035,0.611 -4.064,0.624 -0.108,0.047 -0.22,0.069 -0.33,0.069 -0.32,0 -0.62,-0.187 -0.754,-0.5 -0.181,-0.417 0.012,-0.903 0.429,-1.084 0.146,-0.061 2.008,-0.801 4.99,-0.801 3.211,0 7.726,0.858 12.796,4.344 3.873,2.664 6.79,3.446 8.942,3.446 2.451,0 3.91,-1.014 4.653,-1.416 l 0.109,-0.089 c 0.038,-0.028 3.955,-2.894 5.534,-6.093 1.138,-2.317 0.467,-4.287 -0.537,-5.169 -3.909,-3.518 -6.043,-6.9 -7.172,-9.797 z"
       id="path3791"
       inkscape:connector-curvature="0"
       style="display:inline" /></g><text
     x="-12.503851"
     y="97.107002"
     font-size="5px"
     font-weight="bold"
     id="text3795"
     style="font-weight:bold;font-size:5px;font-family:'Helvetica Neue', Helvetica, Arial-Unicode, Arial, Sans-serif;fill:#000000" />
<text
     x="-12.503851"
     y="102.107"
     font-size="5px"
     font-weight="bold"
     id="text3797"
     style="font-weight:bold;font-size:5px;font-family:'Helvetica Neue', Helvetica, Arial-Unicode, Arial, Sans-serif;fill:#000000" />
</svg>